<svg width="400" height="400" viewBox="0 0 400 400" xmlns="http://www.w3.org/2000/svg">
  <rect width="400" height="400" fill="#0d1b2e" rx="48"/>
  <rect x="72" y="72" width="24" height="24" rx="4" fill="#f0a500"/>
  <rect x="104" y="72" width="24" height="24" rx="4" fill="#f0a500" opacity="0.6"/>
  <rect x="136" y="72" width="24" height="24" rx="4" fill="#f0a500" opacity="0.3"/>
  <rect x="168" y="72" width="24" height="24" rx="4" fill="#f0a500" opacity="0.15"/>
  <rect x="72" y="104" width="24" height="24" rx="4" fill="#f0a500" opacity="0.6"/>
  <rect x="104" y="104" width="56" height="24" rx="4" fill="#f0a500"/>
  <rect x="168" y="104" width="56" height="24" rx="4" fill="#f0a500" opacity="0.4"/>
  <rect x="232" y="104" width="24" height="24" rx="4" fill="#f0a500" opacity="0.2"/>
  <rect x="72" y="136" width="24" height="24" rx="4" fill="#f0a500" opacity="0.3"/>
  <rect x="104" y="136" width="24" height="24" rx="4" fill="#f0a500" opacity="0.4"/>
  <rect x="136" y="136" width="88" height="24" rx="4" fill="#f0a500"/>
  <rect x="232" y="136" width="24" height="24" rx="4" fill="#f0a500" opacity="0.3"/>
  <rect x="72" y="168" width="24" height="24" rx="4" fill="#f0a500" opacity="0.15"/>
  <rect x="104" y="168" width="24" height="24" rx="4" fill="#f0a500" opacity="0.2"/>
  <rect x="136" y="168" width="24" height="24" rx="4" fill="#f0a500" opacity="0.3"/>
  <rect x="168" y="168" width="120" height="24" rx="4" fill="#f0a500"/>
  <text x="200" y="290" font-family="'Barlow Condensed', 'Arial Narrow', sans-serif" font-weight="700" font-size="44" fill="#f0a500" text-anchor="middle" letter-spacing="8">FIXTURDAY</text>
  <text x="200" y="318" font-family="'Barlow Condensed', 'Arial Narrow', sans-serif" font-weight="400" font-size="16" fill="#f0a500" opacity="0.45" text-anchor="middle" letter-spacing="10">TOURNAMENT PLATFORM</text>
</svg>
